<?xml version="1.0" standalone="no"?><!DOCTYPE svg PUBLIC "-//W3C//DTD SVG 1.1//EN" "http://www.w3.org/Graphics/SVG/1.1/DTD/svg11.dtd"><svg t="1583991789792" class="icon" viewBox="0 0 1280 1024" version="1.1" xmlns="http://www.w3.org/2000/svg" p-id="4765" xmlns:xlink="http://www.w3.org/1999/xlink" width="160" height="128"><defs><style type="text/css"></style></defs><path d="M640 73.5C348.8 76.8 0 441.1 0 512c0 70.9 321.3 443.5 640 438.5s640-385.8 640-438.5c0-52.8-348.8-441.8-640-438.5m0 731.1c-161.6 0-292.6-131-292.6-292.6s131-292.6 292.6-292.6c161.6 0 292.6 131 292.6 292.6 0 161.6-131 292.6-292.6 292.6M520.7 512.8c0 65.6 57.5 118.7 128.3 118.7 70.9 0 128.3-53.2 128.3-118.7S720 394.1 649.1 394.1c-70.9 0-128.4 53.2-128.4 118.7" p-id="4766"></path></svg>