<?xml version="1.0" standalone="no"?><!DOCTYPE svg PUBLIC "-//W3C//DTD SVG 1.1//EN" "http://www.w3.org/Graphics/SVG/1.1/DTD/svg11.dtd"><svg t="1583991473399" class="icon" viewBox="0 0 1024 1024" version="1.1" xmlns="http://www.w3.org/2000/svg" p-id="1993" width="128" height="128" xmlns:xlink="http://www.w3.org/1999/xlink"><defs><style type="text/css"></style></defs><path d="M275.16 13.8C151.29 13.8 50.84 114.17 50.84 238s99.12 221.11 223 221.11h222.7V236.36C496.53 112.58 399 13.8 275.16 13.8z m138.22 361.43H273.86c-77 0-139.52-62.24-139.52-139s62.47-139 139.52-139 139.52 62.24 139.52 139zM997.89 238c0-123.78-100.45-224.15-224.32-224.15S552.2 112.58 552.2 236.36v222.7h222.7c123.88 0 222.99-97.33 222.99-221.06zM635.36 375.23v-139c0-76.76 62.35-138.89 139.52-139s139.52 62.24 139.52 139-62.47 139-139.52 139zM50.84 735.85C50.84 859.63 151.29 960 275.16 960s221.36-98.78 221.36-222.56v-222.7H273.83c-123.83 0-222.99 97.33-222.99 221.11z m362.54-137.28v139c0 76.76-62.35 138.89-139.52 139s-139.52-62.24-139.52-139 62.47-139 139.52-139z m361.53-83.83H552.2v222.7C552.2 861.22 649.7 960 773.57 960s224.32-100.37 224.32-224.15-99.11-221.11-222.98-221.11z m0 361.85c-77.17-0.12-139.52-62.24-139.52-139v-139h139.49c77 0 139.52 62.25 139.52 139s-62.48 139-139.52 139z" p-id="1994" fill=""></path></svg>