<?xml version="1.0" standalone="no"?><!DOCTYPE svg PUBLIC "-//W3C//DTD SVG 1.1//EN" "http://www.w3.org/Graphics/SVG/1.1/DTD/svg11.dtd"><svg t="1583992541370" class="icon" viewBox="0 0 1024 1024" version="1.1" xmlns="http://www.w3.org/2000/svg" p-id="26313" xmlns:xlink="http://www.w3.org/1999/xlink" width="128" height="128"><defs><style type="text/css"></style></defs><path d="M925 181.42l-41.15-0.64c-1 0-93.25-1.92-188.54-38.93-97.72-38-160.7-81.67-161.28-82.08l-24.8-17.23-24.79 17.23c-0.58 0.41-63.61 44.06-161.29 82.08-95.22 37.07-187.54 38.93-188.35 38.93l-41.39 0.64v401.46c0 201.56 270.43 414.66 415.83 414.66s415.88-213.1 415.88-414.66z m-415.76 743.9c-117.08 0-345.31-185.8-345.31-344.18V248.36c33-2.25 107.82-10.5 185.86-40.85 79.95-31.15 138.06-66.35 159.51-80.12 23 15 79.44 49 159.33 80.12 78.32 30.41 153.3 38.6 185.86 40.85l0.11 332.78c0 158.38-228.28 344.18-345.36 344.18z" p-id="26314"></path><path d="M757.32 559.08L597.89 718.33l-66.82-75.79a29.8 29.8 0 1 0-44.7 39.46l87.77 99.59a29.71 29.71 0 0 0 21.42 10 4.44 4.44 0 0 0 0.93 0.07 29.74 29.74 0 0 0 21.08-8.68l181.89-181.6a29.84 29.84 0 1 0-42.14-42.26z m0 0" p-id="26315"></path><path d="M594.27 613.14c13.51-13.91 30-28.46 44-40A216.54 216.54 0 0 0 566.92 523c32.6-25.15 54-64.26 54-108.5 0-76-61.82-137.77-137.78-137.77s-137.81 61.85-137.81 137.81c0 44.12 21.24 83.06 53.66 108.26C323 555.52 269.66 631.07 269.66 718.9a29.8 29.8 0 0 0 59.6 0c0-84.8 69-153.83 153.84-153.83 43.77 0 83.12 18.56 111.17 48.07zM483.1 336.37a78.15 78.15 0 1 1-78.17 78.17 78.3 78.3 0 0 1 78.17-78.17z m0 0" p-id="26316"></path></svg>