<?xml version="1.0" encoding="iso-8859-1"?>
<!-- Generator: Adobe Illustrator 16.0.0, SVG Export Plug-In . SVG Version: 6.00 Build 0)  -->
<!DOCTYPE svg PUBLIC "-//W3C//DTD SVG 1.1//EN" "http://www.w3.org/Graphics/SVG/1.1/DTD/svg11.dtd">
<svg version="1.1" id="&#x56FE;&#x5C42;_1" xmlns="http://www.w3.org/2000/svg" xmlns:xlink="http://www.w3.org/1999/xlink" x="0px"
	 y="0px" width="12.855px" height="14.852px" viewBox="0 0 12.855 14.852" style="enable-background:new 0 0 12.855 14.852;"
	 xml:space="preserve">
<path style="fill-rule:evenodd;clip-rule:evenodd;" d="M12.177,12.772c0.025-0.163,0.155-0.294,0.33-0.294
	c0.175,0,0.305,0.131,0.33,0.294h0.012v0.029c0,0.005,0.006,0.009,0.006,0.014s-0.006,0.009-0.006,0.014v1.651
	c0,0.205-0.169,0.371-0.378,0.371H2.268C1.015,14.852,0,13.854,0,12.624V2.228C0,0.998,1.015,0,2.268,0h0.227v4.752
	c0,0,1.429-1.559,1.663-1.559c0.219,0,0.541,0.349,1.663,1.559c0.007-0.67,0.001-4.02,0-4.752h6.651
	c0.209,0,0.378,0.166,0.378,0.372v11.584H2.041c-0.626,0-1.133,0.499-1.133,1.114s0.507,1.114,1.133,1.114h10.128v-1.344
	c0-0.009-0.01-0.014-0.01-0.023s0.01-0.015,0.01-0.023v-0.02H12.177z"/>
</svg>
