<?xml version="1.0" encoding="iso-8859-1"?>
<!-- Generator: Adobe Illustrator 16.0.0, SVG Export Plug-In . SVG Version: 6.00 Build 0)  -->
<!DOCTYPE svg PUBLIC "-//W3C//DTD SVG 1.1//EN" "http://www.w3.org/Graphics/SVG/1.1/DTD/svg11.dtd">
<svg version="1.1" id="&#x56FE;&#x5C42;_1" xmlns="http://www.w3.org/2000/svg" xmlns:xlink="http://www.w3.org/1999/xlink" x="0px"
	 y="0px" width="12px" height="16px" viewBox="0 0 12 16" style="enable-background:new 0 0 12 16;" xml:space="preserve">
<path style="fill-rule:evenodd;clip-rule:evenodd;" d="M6,14.25c-3.214,0-5.815-1.208-5.971-2.722H0v-1.056h0.012
	C0.011,10.453,0,10.436,0,10.417c0-1.301,1.833-2.387,4.327-2.734v-0.52C3.05,6.549,2.164,5.271,2.164,3.778
	C2.164,1.691,3.881,0,6,0c2.119,0,3.836,1.691,3.836,3.778c0,1.527-0.925,2.835-2.25,3.431v0.46C10.125,8.003,12,9.1,12,10.417
	c0,0.019-0.011,0.037-0.012,0.056H12v1.056h-0.029C11.815,13.042,9.214,14.25,6,14.25z M6,15.224c3.038,0,5.546-1.076,5.943-2.473
	C11.979,12.878,12,13.008,12,13.14C12,14.719,9.313,16,6,16c-3.314,0-6-1.281-6-2.86c0-0.132,0.021-0.261,0.057-0.388
	C0.454,14.148,2.962,15.224,6,15.224z"/>
</svg>
