<?xml version="1.0" encoding="iso-8859-1"?>
<!-- Generator: Adobe Illustrator 16.0.0, SVG Export Plug-In . SVG Version: 6.00 Build 0)  -->
<!DOCTYPE svg PUBLIC "-//W3C//DTD SVG 1.1//EN" "http://www.w3.org/Graphics/SVG/1.1/DTD/svg11.dtd">
<svg version="1.1" id="&#x56FE;&#x5C42;_1" xmlns="http://www.w3.org/2000/svg" xmlns:xlink="http://www.w3.org/1999/xlink" x="0px"
	 y="0px" width="14px" height="14.997px" viewBox="0 0 14 14.997" style="enable-background:new 0 0 14 14.997;"
	 xml:space="preserve">
<path style="fill-rule:evenodd;clip-rule:evenodd;" d="M12.771,12.181c-1.34,0.71-3.297,1.854-4.372,2.461
	c-0.75,0.423-1.923,0.487-2.619,0.088c-1.345-0.77-3.438-1.837-4.775-2.675C0.463,11.715,0,10.973,0,10.124c0-1.364,0-3.462,0-4.91
	c0-0.901,0.218-1.71,1.243-2.297c1.21-0.693,3.082-1.707,4.333-2.466c1.085-0.659,1.859-0.537,2.825-0.012
	c1.319,0.716,3.24,1.809,4.455,2.501C13.508,3.311,14,4.097,14,5.008c0,1.419,0,3.595,0,5.027
	C14,10.708,13.626,11.728,12.771,12.181z M7,2.558c-1.422,0-2.574,1.125-2.574,2.514C4.426,6.46,5.578,7.586,7,7.586
	S9.574,6.46,9.574,5.072C9.574,3.684,8.422,2.558,7,2.558z M7,7.938c-2.22,0-4.02,1.738-4.02,3.881h8.039
	C11.02,9.676,9.22,7.938,7,7.938z"/>
</svg>
