<?xml version="1.0" encoding="iso-8859-1"?>
<!-- Generator: Adobe Illustrator 16.0.0, SVG Export Plug-In . SVG Version: 6.00 Build 0)  -->
<!DOCTYPE svg PUBLIC "-//W3C//DTD SVG 1.1//EN" "http://www.w3.org/Graphics/SVG/1.1/DTD/svg11.dtd">
<svg version="1.1" id="&#x56FE;&#x5C42;_1" xmlns="http://www.w3.org/2000/svg" xmlns:xlink="http://www.w3.org/1999/xlink" x="0px"
	 y="0px" width="14.011px" height="14.002px" viewBox="0 0 14.011 14.002" style="enable-background:new 0 0 14.011 14.002;"
	 xml:space="preserve">
<path style="fill-rule:evenodd;clip-rule:evenodd;" d="M13.241,7.001c-0.047,0-0.166,0-0.319,0v5.808
	c0,0.659-0.522,1.193-1.167,1.193H8.563v-3.421c0-0.439-0.349-0.796-0.778-0.796H6.228c-0.43,0-0.779,0.356-0.779,0.796v3.421H2.335
	c-0.645,0-1.167-0.534-1.167-1.193V7.001c-0.191,0-0.338,0-0.377,0c-0.579,0-1.01-0.339-0.671-0.675
	c0.271-0.269,5.745-5.644,6.212-6.102c0.308-0.301,1.041-0.296,1.349,0c0.343,0.33,5.845,5.725,6.227,6.116
	C14.188,6.626,13.878,7.001,13.241,7.001z"/>
</svg>
