<?xml version="1.0" standalone="no"?><!DOCTYPE svg PUBLIC "-//W3C//DTD SVG 1.1//EN" "http://www.w3.org/Graphics/SVG/1.1/DTD/svg11.dtd"><svg t="1583991973765" class="icon" viewBox="0 0 1024 1024" version="1.1" xmlns="http://www.w3.org/2000/svg" p-id="8563" xmlns:xlink="http://www.w3.org/1999/xlink" width="128" height="128"><defs><style type="text/css"></style></defs><path d="M901.85 627.37H832V444.29H546.46v-68.92h74.14a63.7 63.7 0 0 0 63.7-63.7V128.92a63.7 63.7 0 0 0-63.7-63.7H403.4a63.7 63.7 0 0 0-63.7 63.7v182.74a63.7 63.7 0 0 0 63.7 63.7h74.14v68.92H192v183.09h-69.85A58.15 58.15 0 0 0 64 685.52v217.54a58.15 58.15 0 0 0 58.15 58.15h228.31a58.15 58.15 0 0 0 58.15-58.15V685.52a58.15 58.15 0 0 0-58.15-58.15h-89.54V513.21h502.16v114.16h-89.54a58.15 58.15 0 0 0-58.15 58.15v217.54a58.15 58.15 0 0 0 58.15 58.15h228.31A58.15 58.15 0 0 0 960 903.06V685.52a58.15 58.15 0 0 0-58.15-58.15z" p-id="8564"></path></svg>