<?xml version="1.0" encoding="iso-8859-1"?>
<!-- Generator: Adobe Illustrator 16.0.0, SVG Export Plug-In . SVG Version: 6.00 Build 0)  -->
<!DOCTYPE svg PUBLIC "-//W3C//DTD SVG 1.1//EN" "http://www.w3.org/Graphics/SVG/1.1/DTD/svg11.dtd">
<svg version="1.1" id="&#x56FE;&#x5C42;_1" xmlns="http://www.w3.org/2000/svg" xmlns:xlink="http://www.w3.org/1999/xlink" x="0px"
	 y="0px" width="15px" height="13px" viewBox="0 0 15 13" style="enable-background:new 0 0 15 13;" xml:space="preserve">
<path style="fill-rule:evenodd;clip-rule:evenodd;" d="M14,10.33H1c-0.552,0-1-0.447-1-1V1c0-0.552,0.448-1,1-1h13
	c0.552,0,1,0.448,1,1v8.331C15,9.883,14.552,10.33,14,10.33z M7.456,1.132c-1.189,0-2.153,0.98-2.153,2.19
	c0,1.21,0.964,2.191,2.153,2.191c1.189,0,2.153-0.98,2.153-2.191C9.609,2.112,8.645,1.132,7.456,1.132z M7.5,5.834
	c-1.878,0-3.4,1.558-3.4,3.48h6.8C10.9,7.393,9.378,5.834,7.5,5.834z M4.211,11.375h6.49c0.449,0,0.813,0.364,0.813,0.813
	S11.15,13,10.701,13h-6.49c-0.449,0-0.813-0.364-0.813-0.813S3.762,11.375,4.211,11.375z"/>
</svg>
