<?xml version="1.0" standalone="no"?><!DOCTYPE svg PUBLIC "-//W3C//DTD SVG 1.1//EN" "http://www.w3.org/Graphics/SVG/1.1/DTD/svg11.dtd"><svg t="1583992158363" class="icon" viewBox="0 0 1024 1024" version="1.1" xmlns="http://www.w3.org/2000/svg" p-id="16741" xmlns:xlink="http://www.w3.org/1999/xlink" width="128" height="128"><defs><style type="text/css"></style></defs><path d="M587.3664 619.01824s-31.40608-8.22272-39.77216-12.3392c-16.75264-10.2912-27.21792-30.8736-27.21792-51.456 0-22.64064 18.8416-41.1648 31.40608-55.57248 31.39584-37.04832 48.14848-86.43584 48.14848-142.00832 0-115.2512-83.74272-207.872-186.32704-207.872s-186.3168 94.67904-186.3168 209.92c0 55.58272 18.8416 104.97024 48.14848 142.01856 18.8416 10.2912 31.40608 32.93184 31.40608 55.57248 0 20.5824-10.47552 39.09632-27.21792 51.44576v2.05824c-2.0992 0-4.1984 2.05824-4.1984 2.05824-10.45504 6.17472-20.93056 10.2912-33.4848 10.2912-79.5648 26.75712-146.54464 67.92192-186.32704 119.37792h2.0992c-10.47552 14.40768-14.66368 30.8736-14.66368 47.32928 0 49.39776 41.8816 90.56256 94.208 90.56256h552.69376c54.4256 0 96.29696-39.10656 96.29696-90.56256 0-20.5824-8.36608-39.09632-18.8416-55.56224-39.77216-51.456-102.57408-90.56256-180.03968-115.26144z m374.74304 90.56256c-35.59424-43.2128-90.01984-80.27136-159.10912-100.85376 0 0-27.21792-6.17472-35.59424-10.28096-14.6432-10.2912-23.02976-26.75712-23.02976-45.28128 0-20.5824 16.75264-37.04832 27.21792-47.33952 27.21792-32.93184 43.97056-76.14464 43.97056-125.5424 0-100.85376-73.27744-185.2416-165.39648-185.2416-14.6432 0-29.30688 2.06848-41.86112 6.18496 31.39584 45.28128 48.14848 98.78528 48.14848 158.47424 0 63.7952-23.04 125.5424-62.81216 176.9984l-4.17792 4.11648v2.048c-4.1984 4.12672-10.47552 10.30144-12.56448 16.47616 0 2.048 0 2.048 2.08896 2.048 4.1984 2.06848 10.47552 4.12672 16.75264 4.12672h2.08896l8.37632 4.11648c85.83168 26.75712 159.10912 74.0864 207.2576 133.77536 20.9408 26.75712 33.49504 57.63072 33.49504 90.55232 0 18.5344-4.18816 32.93184-10.46528 49.39776h60.71296c48.14848 0 85.83168-34.99008 85.83168-80.26112-2.08896-22.64064-8.37632-39.1168-20.93056-53.51424z" p-id="16742"></path></svg>